<?xml version="1.0" standalone="no"?>
<!DOCTYPE svg PUBLIC "-//W3C//DTD SVG 20010904//EN"
 "http://www.w3.org/TR/2001/REC-SVG-20010904/DTD/svg10.dtd">
<svg version="1.0" xmlns="http://www.w3.org/2000/svg"
 width="225.000000pt" height="225.000000pt" viewBox="0 0 225.000000 225.000000"
 preserveAspectRatio="xMidYMid meet">

<g transform="translate(0.000000,225.000000) scale(0.100000,-0.100000)"
fill="#000000" stroke="none">
<path d="M0 1125 l0 -1125 1125 0 1125 0 0 1125 0 1125 -552 -1 c-353 -1 -517
-5 -453 -10 422 -32 791 -320 933 -729 75 -217 78 -475 6 -690 -103 -308 -314
-540 -610 -670 -144 -63 -250 -84 -429 -83 -179 0 -280 20 -425 82 -52 23
-100 41 -107 41 -6 0 -140 -41 -298 -91 -157 -50 -289 -89 -292 -85 -4 3 35
131 85 284 51 152 93 282 92 288 0 6 -20 54 -45 106 -134 283 -136 614 -6 909
112 254 335 466 596 569 120 46 171 59 285 69 52 5 -130 9 -472 10 l-558 1 0
-1125z"/>
<path d="M988 2050 c-343 -62 -634 -333 -724 -675 -28 -106 -27 -342 3 -450
26 -96 62 -178 108 -251 l35 -55 -54 -162 c-31 -89 -52 -163 -48 -164 4 -2 82
21 173 50 l165 53 40 -25 c64 -40 198 -91 287 -108 109 -21 313 -13 412 16
187 53 343 155 460 300 77 96 120 175 162 298 33 99 37 120 41 249 5 154 -8
232 -64 370 -77 192 -228 359 -415 458 -143 75 -231 98 -394 102 -77 1 -161
-1 -187 -6z m-122 -375 c28 -19 118 -257 110 -289 -3 -13 -26 -48 -51 -79
l-46 -55 19 -39 c61 -119 191 -246 315 -308 81 -41 84 -40 158 45 33 38 60 60
73 60 12 0 77 -30 145 -67 l123 -67 -5 -59 c-7 -76 -38 -122 -112 -166 -48
-29 -68 -35 -133 -39 -72 -4 -84 -1 -192 40 -63 24 -148 64 -189 88 -211 123
-461 459 -478 642 -14 160 80 308 197 308 25 0 55 -7 66 -15z"/>
</g>
</svg>
